<?xml version="1.0" encoding="UTF-8"?>
<svg width="100px" height="100px" viewBox="0 0 100 100" version="1.1" xmlns="http://www.w3.org/2000/svg" xmlns:xlink="http://www.w3.org/1999/xlink">
    <title>未授权</title>
    <g id="12" stroke="none" stroke-width="1" fill="none" fill-rule="evenodd">
        <g id="车机未获得授权" transform="translate(-910.000000, -267.000000)" fill-rule="nonzero">
            <g id="锁定" transform="translate(910.000000, 267.000000)">
                <path d="M85.119047,15.185738 C75.9113108,5.71067784 63.2088127,0.444389669 49.9979629,0.624999829 C36.7266096,0.414937207 23.9549471,5.68184649 14.6895741,15.1858357 C5.15553683,24.4149172 -0.15635257,37.1634094 0.00373832116,50.4317245 C-0.161426082,63.6827746 5.15263101,76.413889 14.6895741,85.6152109 C23.9699286,95.0755524 36.7489293,100.277613 49.9980606,99.9885468 C63.2347761,100.208827 75.9717015,94.9375957 85.181547,85.427711 C94.7168631,76.2926141 100.073121,63.6363878 99.9922852,50.4316268 C100.103458,37.1354292 94.7220772,24.3828416 85.1191447,15.1858357 L85.119047,15.185738 Z" id="路径" fill="#FF3C3C"></path>
                <path d="M68.9078093,47.2240735 C69.9730917,48.2772491 70.5099786,49.7526139 70.3707112,51.2441266 L70.4332112,67.9296689 C70.5724786,69.4211816 70.0355917,70.8965464 68.9703093,71.949722 C67.9050269,73.0028976 66.4236222,73.5228869 64.9337987,73.3665815 L34.9372248,73.3665815 C33.4576893,73.5028383 31.9942044,72.9739489 30.943597,71.9233227 C29.8929896,70.8726964 29.3641265,69.409202 29.5004099,67.9296689 L29.5004099,51.2441266 C29.3641265,49.7645934 29.8929896,48.3010991 30.943597,47.2504728 C31.9942044,46.1998465 33.4576893,45.6709572 34.9372248,45.807214 L64.8712987,45.807214 C66.3611222,45.6509086 67.8425269,46.1708979 68.9078093,47.2240735 Z M50.1230117,55.2491079 C48.9359027,55.2491079 47.8029101,55.7456601 46.9983544,56.6185392 C45.4381697,58.3112157 45.5094869,60.9384306 47.1592036,62.5439725 C48.8089203,64.1495145 51.4371031,64.1495145 53.0868198,62.5439725 C54.7365365,60.9384306 54.8078537,58.3112157 53.2476691,56.6185392 C52.4431133,55.7456601 51.3101207,55.2491079 50.1230117,55.2491079 Z M49.4980607,24.9971611 C53.3955765,24.9143457 57.1525475,26.4533428 59.871886,29.2466717 C61.7693066,31.079825 63.0936228,33.4244848 63.6839943,35.9958886 C63.9389032,37.0389172 64.0648445,38.1092871 64.059189,39.1829971 L64.059189,43.7450076 L58.5595817,43.7450076 L58.5595817,38.9954971 C58.6243692,38.3305026 58.6243692,37.6607852 58.5595817,36.9957907 C58.1181464,35.4330583 57.2783165,34.0118051 56.1223753,32.8712801 L56.2473753,32.8712801 C54.589763,31.2096809 52.3450113,30.2668873 49.9980606,30.2465737 C47.6454753,30.2391172 45.3904739,31.1862156 43.7487459,32.8712801 C42.0871704,34.5288683 41.1443787,36.7735803 41.1240396,39.1204971 L41.1240396,43.7450076 L35.4997247,43.7450076 L35.4997247,39.307997 C35.2748828,35.4936636 36.6051203,31.7509878 39.1868331,28.9341718 C41.9436564,26.2713189 45.6680488,24.8492794 49.4980607,24.9971611 Z" id="路径-2" fill="#FFFFFF"></path>
            </g>
        </g>
    </g>
</svg>