<?xml version="1.0" encoding="UTF-8"?>
<svg width="18px" height="16px" viewBox="0 0 18 16" version="1.1" xmlns="http://www.w3.org/2000/svg" xmlns:xlink="http://www.w3.org/1999/xlink">
    <g id="页面-1" stroke="none" stroke-width="1" fill="none" fill-rule="evenodd" stroke-linecap="round" stroke-linejoin="round" stroke-opacity="1">
        <g id="Prome-Home---Phone" transform="translate(-350.000000, -3028.000000)" stroke="#FFFFFF">
            <g id="编组" transform="translate(351.000000, 3029.000000)">
                <path d="M15.6265242,2.78687606 C15.6265242,4.32559616 12.2122089,5.57375212 8.00014939,5.57375212 C3.78808986,5.57375212 0.373774533,4.32559616 0.373774533,2.78687606 C0.373774533,1.24815596 3.78808986,0 8.00014939,0 C12.2122089,0 15.6265242,1.24815596 15.6265242,2.78687606 Z" id="Stroke-1"></path>
                <path d="M15.6265242,7.18096768 C15.6265242,8.71968777 12.2122089,9.96784374 8.00014939,9.96784374 C3.78808986,9.96784374 0.373774533,8.71968777 0.373774533,7.18096768" id="Stroke-3"></path>
                <path d="M15.6265242,11.5750593 C15.6265242,13.1137794 12.2122089,14.3619354 8.00014939,14.3619354 C3.78808986,14.3619354 0.373774533,13.1137794 0.373774533,11.5750593" id="Stroke-5"></path>
                <line x1="0.373475752" y1="2.78687606" x2="0.373475752" y2="11.5747605" id="Stroke-7"></line>
                <line x1="15.6265242" y1="2.78687606" x2="15.6265242" y2="11.5747605" id="Stroke-9"></line>
            </g>
        </g>
    </g>
</svg>