<?xml version="1.0" encoding="UTF-8"?>
<svg width="18px" height="17px" viewBox="0 0 18 17" version="1.1" xmlns="http://www.w3.org/2000/svg" xmlns:xlink="http://www.w3.org/1999/xlink">
    <g id="页面-1" stroke="none" stroke-width="1" fill="none" fill-rule="evenodd" stroke-linecap="round" stroke-linejoin="round" stroke-opacity="1">
        <g id="Prome-Home---Phone" transform="translate(-350.000000, -3105.000000)" stroke="#FFFFFF">
            <g id="编组" transform="translate(351.000000, 3106.000000)">
                <path d="M14.3843776,0 L1.61562239,0 C0.723811393,0 0,0.723811393 0,1.61562239 L0,10.4481625 C0,11.3407585 0.723811393,12.0645699 1.61562239,12.0645699 L3.38982386,12.0645699 L3.38982386,14.6866199 C3.38982386,15.3319268 4.17094353,15.6561503 4.62783965,15.1992542 L7.76252392,12.0645699 L14.3843776,12.0645699 C15.2769737,12.0645699 16,11.3407585 16,10.4481625 L16,1.61562239 C16,0.723811393 15.2769737,0 14.3843776,0 Z" id="Stroke-1"></path>
                <path d="M9.06616947,3.02226584 C9.06616947,3.61104951 8.58886218,4.0883568 8.0000785,4.0883568 C7.41129483,4.0883568 6.93398754,3.61104951 6.93398754,3.02226584 C6.93398754,2.43348216 7.41129483,1.95617487 8.0000785,1.95617487 C8.58886218,1.95617487 9.06616947,2.43348216 9.06616947,3.02226584 Z" id="Stroke-3"></path>
                <path d="M8.03038124,5.34686227 L7.96993278,5.34686227 C7.39763505,5.34686227 6.93445856,5.81082381 6.93445856,6.38233649 L6.93445856,9.0263677 C6.93445856,9.59788038 7.39763505,10.0618419 7.96993278,10.0618419 L8.03038124,10.0618419 C8.60267897,10.0618419 9.06585545,9.59788038 9.06585545,9.0263677 L9.06585545,6.38233649 C9.06585545,5.81082381 8.60267897,5.34686227 8.03038124,5.34686227 Z" id="Stroke-5"></path>
            </g>
        </g>
    </g>
</svg>