<?xml version="1.0" encoding="UTF-8"?>
<svg width="85px" height="14px" viewBox="0 0 85 14" version="1.1" xmlns="http://www.w3.org/2000/svg" xmlns:xlink="http://www.w3.org/1999/xlink">
    <g id="页面-1" stroke="none" stroke-width="1" fill="none" fill-rule="evenodd">
        <g id="Prome-Home" transform="translate(-130.000000, -58.000000)" fill="#FFFFFF">
            <g id="编组-4" transform="translate(130.000000, 58.000000)">
                <path d="M12.2905729,4.23467624 C12.2905729,3.68056412 12.2424332,3.2375575 12.1455034,2.90494869 C12.0492241,2.57233989 11.8566655,2.32182177 11.5671771,2.15268665 C11.2770381,1.98284386 10.8450823,1.87103068 10.2713098,1.8151241 C9.69818772,1.75992519 8.93120601,1.73232573 7.97101517,1.73232573 L1.54437199,1.73232573 L1.54437199,7.0873275 L7.97101517,7.0873275 C8.93120601,7.0873275 9.69818772,7.05335894 10.2713098,6.98683718 C10.8450823,6.91960774 11.2770381,6.7971794 11.5671771,6.61955214 C11.8566655,6.44121721 12.0492241,6.18786837 12.1455034,5.85809028 C12.2424332,5.52831219 12.2905729,5.10441288 12.2905729,4.584977 L12.2905729,4.23467624 Z M-3.21293361e-14,13.7196886 L-3.21293361e-14,0.279462164 L8.26896057,0.279462164 C9.47570448,0.279462164 10.447605,0.343860891 11.184662,0.472658343 C11.9223696,0.600748117 12.4811799,0.815174645 12.8617433,1.11523025 C13.2423068,1.41599353 13.4999189,1.8214932 13.6339293,2.33172926 C13.7679397,2.84196532 13.8349449,3.47675277 13.8349449,4.23467624 L13.8349449,4.584977 C13.8349449,5.30822423 13.7672892,5.92248901 13.6300261,6.42706364 C13.4934136,6.93163828 13.2286455,7.3385533 12.8376735,7.64710105 C12.4460509,7.95706415 11.8807353,8.18281353 11.1404256,8.32505687 C10.4007664,8.46800789 9.42756483,8.54019107 8.22082092,8.54019107 L1.54437199,8.54019107 L1.54437199,13.7196886 L-3.21293361e-14,13.7196886 Z" id="Fill-1"></path>
                <path d="M17.5596527,6.8339079 L24.388327,6.8339079 C25.3055824,6.8339079 26.0283277,6.79993934 26.5559123,6.7327099 C27.0847979,6.66618814 27.4731677,6.54800586 27.7223229,6.37816307 C27.9721287,6.20973563 28.13151,5.97054036 28.2011173,5.66128494 C28.2707246,5.35202952 28.3058536,4.95289895 28.3058536,4.46177021 L28.3058536,4.11217712 C28.3058536,3.55806501 28.2570634,3.12071981 28.1607841,2.80014154 C28.0638542,2.47956326 27.8719462,2.24319871 27.5818072,2.09104787 C27.2923188,1.93960471 26.860363,1.84123743 26.2865904,1.79806905 C25.7128179,1.75419299 24.9458361,1.73225497 23.9862958,1.73225497 L17.5596527,1.73225497 L17.5596527,6.8339079 Z M16.0152807,0.279391397 L24.2842412,0.279391397 C25.4903346,0.279391397 26.4628856,0.338128696 27.1992922,0.454895617 C27.9369998,0.57095486 28.4964605,0.773350857 28.8763735,1.05854522 C29.2569369,1.34444725 29.5151996,1.73508568 29.64921,2.23116817 C29.7832204,2.72654299 29.8502255,3.35425365 29.8502255,4.11217712 L29.8502255,4.46177021 C29.8502255,5.16237173 29.7734623,5.76460597 29.6205864,6.26918061 C29.468361,6.77375524 29.1743189,7.18208563 28.7404115,7.49487944 C28.3058536,7.8062579 27.6618231,8.02705353 26.8096212,8.1551433 L29.4963341,13.7196179 L27.9519621,13.7196179 L25.3218458,8.27757165 C25.2145074,8.28323308 25.1032658,8.28677147 24.9874704,8.28677147 L24.6296757,8.28677147 L17.5596527,8.28677147 L17.5596527,13.7196179 L16.0152807,13.7196179 L16.0152807,0.279391397 Z" id="Fill-3"></path>
                <path d="M38.2313385,12.5478441 L41.4729584,12.5478441 C42.2399401,12.5478441 42.8859221,12.5181216 43.4115551,12.460092 C43.937188,12.4020624 44.36459,12.2760956 44.6950622,12.0843148 C45.0242333,11.8911186 45.2759907,11.5995552 45.4509848,11.2082091 C45.6246779,10.8182783 45.7443765,10.295304 45.808129,9.64282465 C45.872532,8.98963757 45.9050588,8.16731537 45.9050588,7.17515038 L45.9050588,6.82484962 C45.9050588,5.79871607 45.872532,4.95304049 45.808129,4.2871152 C45.7443765,3.62260527 45.6246779,3.09750796 45.4509848,2.71253096 C45.2759907,2.32755396 45.0242333,2.04589799 44.6950622,1.86756306 C44.36459,1.6899358 43.937188,1.5759996 43.4115551,1.52716979 C42.8859221,1.47692463 42.2399401,1.45215589 41.4729584,1.45215589 L38.2313385,1.45215589 C37.4643568,1.45215589 36.8183747,1.47692463 36.2933923,1.52716979 C35.7671089,1.5759996 35.3397069,1.6899358 35.0098852,1.86756306 C34.6800635,2.04589799 34.4276557,2.32755396 34.2539626,2.71253096 C34.079619,3.09750796 33.960571,3.62260527 33.8961679,4.2871152 C33.8311143,4.95304049 33.7998886,5.79871607 33.7998886,6.82484962 L33.7998886,7.17515038 C33.7998886,8.16731537 33.8311143,8.98963757 33.8961679,9.64282465 C33.960571,10.295304 34.079619,10.8182783 34.2539626,11.2082091 C34.4276557,11.5995552 34.6800635,11.8911186 35.0098852,12.0843148 C35.3397069,12.2760956 35.7671089,12.4020624 36.2933923,12.460092 C36.8183747,12.5181216 37.4643568,12.5478441 38.2313385,12.5478441 L38.2313385,12.5478441 Z M38.2313385,14 C37.0252451,14 36.0325275,13.9115402 35.2551372,13.7332053 C34.4770964,13.555578 33.8701465,13.2272153 33.433637,12.7488247 C32.9958264,12.2704342 32.6900745,11.5825709 32.5163815,10.6838194 C32.3420379,9.78577567 32.2548661,8.61527574 32.2548661,7.17515038 L32.2548661,6.82484962 C32.2548661,5.6345347 32.3088606,4.63600061 32.416199,3.82853966 C32.5235374,3.02037103 32.7082895,2.3622302 32.971106,1.85482485 C33.2332719,1.3474195 33.5910666,0.959611788 34.0444901,0.69069403 C34.4979135,0.422483951 35.0677829,0.239902947 35.7534476,0.144366375 C36.4404134,0.0481221251 37.2665939,0 38.2313385,0 L41.4729584,0 C42.4383535,0 43.2638834,0.0481221251 43.9501987,0.144366375 C44.6371645,0.239902947 45.2070339,0.422483951 45.6598068,0.69069403 C46.1125797,0.959611788 46.4710249,1.3474195 46.7331909,1.85482485 C46.9966579,2.3622302 47.18141,3.02037103 47.2887484,3.82853966 C47.3960868,4.63600061 47.4494308,5.6345347 47.4494308,6.82484962 L47.4494308,7.17515038 C47.4494308,8.61527574 47.362259,9.78577567 47.1885659,10.6838194 C47.0135718,11.5825709 46.70782,12.2704342 46.2706599,12.7488247 C45.8341504,13.2272153 45.22655,13.555578 44.4491597,13.7332053 C43.6711189,13.9115402 42.6797023,14 41.4729584,14 L38.2313385,14 Z" id="Fill-5"></path>
                <polygon id="Fill-7" points="50.0559326 13.7199009 50.0559326 0.279674468 52.3562272 0.279674468 59.8282814 11.2437345 67.1884434 0.279674468 69.4893886 0.279674468 69.4893886 13.7199009 67.9450166 13.7199009 67.9450166 1.80189051 60.5685911 12.8360107 59.1692886 12.8360107 51.6003046 1.80189051 51.6003046 13.7199009"></polygon>
                <polygon id="Fill-9" points="72.6099437 13.7199009 72.6099437 0.279674468 84.7398343 0.279674468 84.7398343 1.67946216 74.1543157 1.67946216 74.1543157 6.15977354 84.2974699 6.15977354 84.2974699 7.56026892 74.1543157 7.56026892 74.1543157 12.3194056 84.9649197 12.3194056 84.9649197 13.7199009"></polygon>
            </g>
        </g>
    </g>
</svg>