<?xml version="1.0" encoding="UTF-8"?>
<svg width="56px" height="56px" viewBox="0 0 56 56" version="1.1" xmlns="http://www.w3.org/2000/svg" xmlns:xlink="http://www.w3.org/1999/xlink">
    <g id="页面-1" stroke="none" stroke-width="1" fill="none" fill-rule="evenodd" stroke-linecap="round" stroke-linejoin="round" stroke-opacity="0.7">
        <g id="切图补充" transform="translate(-520.000000, -1029.000000)" stroke="#FFFFFF">
            <g id="编组" transform="translate(521.000000, 1030.000000)">
                <path d="M54,27 C54,41.912 41.912,54 27,54 C12.088,54 0,41.912 0,27 C0,12.088 12.088,0 27,0 C41.912,0 54,12.088 54,27 Z" id="Stroke-1"></path>
                <polyline id="Stroke-3" points="54 27 29.052 27 8.943 47.11"></polyline>
                <path d="M21.409,34.3842 C19.179,32.6932 17.738,30.0152 17.738,27.0002 C17.738,21.8852 21.885,17.7382 27,17.7382 C32.115,17.7382 36.262,21.8852 36.262,27.0002" id="Stroke-5"></path>
                <line x1="14.9787" y1="41.0738" x2="50.0457" y2="41.0738" id="Stroke-7"></line>
                <line x1="29.0525" y1="27" x2="8.9425" y2="47.11" id="Stroke-9"></line>
                <line x1="48.6931" y1="27" x2="22.1311" y2="53.562" id="Stroke-11"></line>
                <line x1="27" y1="14.487" x2="27" y2="10.859" id="Stroke-13"></line>
                <line x1="20.7435" y1="16.1634" x2="18.9295" y2="13.0214" id="Stroke-15"></line>
                <line x1="16.1634" y1="20.7435" x2="13.0214" y2="18.9295" id="Stroke-17"></line>
                <line x1="14.487" y1="27" x2="10.859" y2="27" id="Stroke-19"></line>
                <line x1="16.1634" y1="33.2565" x2="13.0214" y2="35.0705" id="Stroke-21"></line>
                <line x1="37.8366" y1="20.7435" x2="40.9786" y2="18.9295" id="Stroke-23"></line>
                <line x1="33.2565" y1="16.1634" x2="35.0705" y2="13.0214" id="Stroke-25"></line>
            </g>
        </g>
    </g>
</svg>